<?xml version="1.0" encoding="UTF-8"?>
<svg xmlns="http://www.w3.org/2000/svg" viewBox="0 0 1200 630" width="1200" height="630">
  <defs>
    <linearGradient id="g80224" x1="92.8583650351056%" y1="24.24809625449728%" x2="7.141634964894386%" y2="75.75190374550272%">
      <stop offset="0%" stop-color="#7C3AED"/>
      <stop offset="100%" stop-color="#6D28D9"/>
    </linearGradient>
  </defs>
  <rect width="1200" height="630" fill="url(#g80224)"/>
  <path d="M 593.9109508600086 235.78985520172864 L 808.131015454419 235.78985520172864 L 808.131015454419 301.5393856028095" fill="none" stroke="rgba(255,255,255,0.13011657407507302)" stroke-width="2"/><circle cx="593.9109508600086" cy="235.78985520172864" r="4" fill="rgba(255,255,255,0.15)"/><path d="M 134.79939910583198 413.0338221625425 L 239.41719592781737 413.0338221625425 L 239.41719592781737 503.5069954791106" fill="none" stroke="rgba(255,255,255,0.11945914519950748)" stroke-width="2"/><circle cx="134.79939910583198" cy="413.0338221625425" r="4" fill="rgba(255,255,255,0.15)"/><path d="M 436.883134925738 379.1404487215914 L 268.5303954873234 379.1404487215914 L 268.5303954873234 429.7049814485945" fill="none" stroke="rgba(255,255,255,0.09992314938455821)" stroke-width="2"/><circle cx="436.883134925738" cy="379.1404487215914" r="4" fill="rgba(255,255,255,0.15)"/><path d="M 397.9491281043738 183.36742791812867 L 611.153344521299 183.36742791812867 L 611.153344521299 93.30764518585056" fill="none" stroke="rgba(255,255,255,0.10779270980507136)" stroke-width="2"/><circle cx="397.9491281043738" cy="183.36742791812867" r="4" fill="rgba(255,255,255,0.15)"/><path d="M 106.64492162875831 519.4438591203652 L 282.0128061133437 519.4438591203652 L 282.0128061133437 462.59312929352745" fill="none" stroke="rgba(255,255,255,0.08490857159718872)" stroke-width="2"/><circle cx="106.64492162875831" cy="519.4438591203652" r="4" fill="rgba(255,255,255,0.15)"/><text x="450.6328962277621" y="194.093133113347" font-family="monospace" font-size="120" fill="rgba(255,255,255,0.07)">&lt;/&gt;</text><text x="395.9171297028661" y="261.2443016306497" font-family="monospace" font-size="42.69567655026913" fill="rgba(255,255,255,0.05105643924325705)">0</text><text x="610.3565681166947" y="156.02775367442518" font-family="monospace" font-size="43.57866948004812" fill="rgba(255,255,255,0.07780136361718178)">0</text><text x="961.1294963955879" y="325.63662046100944" font-family="monospace" font-size="42.04522622562945" fill="rgba(255,255,255,0.11459144493564964)">1</text><text x="901.9041654281318" y="173.24944297550246" font-family="monospace" font-size="48.24068735074252" fill="rgba(255,255,255,0.050991265531629325)">0</text><text x="1011.1774570308626" y="306.2049666256644" font-family="monospace" font-size="48.99455994088203" fill="rgba(255,255,255,0.08556101063266397)">0</text><text x="876.6864798218012" y="423.4683251241222" font-family="monospace" font-size="42.39045547693968" fill="rgba(255,255,255,0.05055609598755837)">0</text><text x="920.7960724830627" y="224.9957098136656" font-family="monospace" font-size="48.842260118573904" fill="rgba(255,255,255,0.1286546817421913)">0</text><rect x="921.5061099734157" y="357.9198661725968" width="16" height="16" rx="2" fill="rgba(255,255,255,0.1)"/><rect x="941.5061099734157" y="357.9198661725968" width="16" height="16" rx="2" fill="rgba(255,255,255,0.1)"/><rect x="961.5061099734157" y="357.9198661725968" width="16" height="16" rx="2" fill="rgba(255,255,255,0.04)"/><rect x="981.5061099734157" y="357.9198661725968" width="16" height="16" rx="2" fill="rgba(255,255,255,0.04)"/><rect x="1001.5061099734157" y="357.9198661725968" width="16" height="16" rx="2" fill="rgba(255,255,255,0.1)"/><rect x="921.5061099734157" y="377.9198661725968" width="16" height="16" rx="2" fill="rgba(255,255,255,0.04)"/><rect x="941.5061099734157" y="377.9198661725968" width="16" height="16" rx="2" fill="rgba(255,255,255,0.04)"/><rect x="961.5061099734157" y="377.9198661725968" width="16" height="16" rx="2" fill="rgba(255,255,255,0.04)"/><rect x="981.5061099734157" y="377.9198661725968" width="16" height="16" rx="2" fill="rgba(255,255,255,0.1)"/><rect x="1001.5061099734157" y="377.9198661725968" width="16" height="16" rx="2" fill="rgba(255,255,255,0.1)"/><rect x="921.5061099734157" y="397.9198661725968" width="16" height="16" rx="2" fill="rgba(255,255,255,0.04)"/><rect x="941.5061099734157" y="397.9198661725968" width="16" height="16" rx="2" fill="rgba(255,255,255,0.1)"/><rect x="961.5061099734157" y="397.9198661725968" width="16" height="16" rx="2" fill="rgba(255,255,255,0.04)"/><rect x="981.5061099734157" y="397.9198661725968" width="16" height="16" rx="2" fill="rgba(255,255,255,0.1)"/><rect x="1001.5061099734157" y="397.9198661725968" width="16" height="16" rx="2" fill="rgba(255,255,255,0.1)"/>
  <circle cx="1183.7197322398424" cy="615.9041265724227" r="1.213852378539741" fill="rgba(255,255,255,0.048641044094692915)"/><circle cx="1168.8955980353057" cy="136.33755037095398" r="2.306299507152289" fill="rgba(255,255,255,0.06472737425472588)"/><circle cx="999.8378980904818" cy="212.54599998006597" r="2.534634561277926" fill="rgba(255,255,255,0.051877400041557845)"/><circle cx="668.6266483739018" cy="144.0422121528536" r="1.0765710454434156" fill="rgba(255,255,255,0.0738005824922584)"/><circle cx="1059.5585617236793" cy="554.2632671794854" r="1.8246953231282532" fill="rgba(255,255,255,0.03175010642269626)"/><circle cx="771.8558396212757" cy="69.66809565899894" r="2.6727016479708254" fill="rgba(255,255,255,0.06000012033153325)"/><circle cx="1072.0539981499314" cy="80.97891399404034" r="2.4028871883638203" fill="rgba(255,255,255,0.03436579796951264)"/><circle cx="1036.5896509028971" cy="523.626958548557" r="1.5674356883391738" fill="rgba(255,255,255,0.07622173305833713)"/><circle cx="527.4103000760078" cy="270.05568645196036" r="2.3300040028989315" fill="rgba(255,255,255,0.05513797717401758)"/><circle cx="951.0754837654531" cy="251.26569950021803" r="1.8500657477416098" fill="rgba(255,255,255,0.04157818065257743)"/><circle cx="534.8493682220578" cy="284.779095556587" r="1.6730493013747036" fill="rgba(255,255,255,0.07018281856551767)"/><circle cx="573.9630354568362" cy="270.93978135148063" r="2.405910362955183" fill="rgba(255,255,255,0.03144735390786081)"/>
  <text x="600" y="335" font-family="system-ui, -apple-system, 'Segoe UI', sans-serif" font-size="68" font-weight="700" fill="rgba(0,0,0,0.15)" text-anchor="middle" letter-spacing="1">Comptia A Core 2</text>
  <text x="600" y="332" font-family="system-ui, -apple-system, 'Segoe UI', sans-serif" font-size="68" font-weight="700" fill="white" text-anchor="middle" letter-spacing="1">Comptia A Core 2</text>
  <g transform="translate(1140, 575)">
    <rect x="0" y="0" width="40" height="40" rx="8" fill="rgba(255,255,255,0.15)"/>
    <text x="20" y="29" font-family="sans-serif" font-weight="bold" font-size="24" fill="rgba(255,255,255,0.6)" text-anchor="middle">K</text>
  </g>
</svg>